<svg xmlns="http://www.w3.org/2000/svg" xmlns:xlink="http://www.w3.org/1999/xlink" version="1.1" baseProfile="full" width="100%" height="100%" viewBox="0 0 18.00 11.00" enable-background="new 0 0 18.00 11.00" xml:space="preserve">
  <path fill="#000000" fill-opacity="1" fill-rule="evenodd" stroke-width="0.2" stroke-linejoin="round" d="M5.463 10.93a.962.962 0 0 1-.68-.28l-4.5-4.5a.966.966 0 0 1 0-1.366L4.78.284a.964.964 0 1 1 1.366 1.364l-3.82 3.818 3.82 3.817a.966.966 0 0 1 0 1.366.968.968 0 0 1-.683.28zm7.074 0a.962.962 0 0 0 .68-.28l4.5-4.503a.965.965 0 0 0 0-1.365L13.22.282a.966.966 0 0 0-1.366 1.366l3.82 3.818-3.82 3.817a.966.966 0 0 0 0 1.366c.188.184.437.28.683.28zm-.523-4.335c.26-.26.26-.68 0-.94a.688.688 0 0 0-.96 0L9.644 7.05V2.273c0-.366-.275-.663-.643-.663s-.64.297-.64.663V7.05L6.95 5.655a.676.676 0 0 0-.95 0 .666.666 0 0 0 0 .94l2.536 2.532v.003c.03.03.06.055.096.078l.012.007.04.025.016.01.05.023a.275.275 0 0 0 .05.018l.016.008c.005.003.01.003.018.005a.66.66 0 0 0 .345 0s.01 0 .01-.004c.007 0 .01-.004.016-.005l.05-.017.05-.024c.006 0 .01-.005.015-.01.017-.004.03-.013.04-.02l.016-.01.045-.033c.016-.014.034-.03.046-.044h.005l2.54-2.534z"/>
</svg>
