<svg width="12" height="12" viewBox="0 0 12 12" xmlns="http://www.w3.org/2000/svg"><title>Search</title><path d="M1.486 8.667c.452.452.994.814 1.615 1.085.635.27 1.294.4 1.98.4 1.06 0 2.014-.296 2.88-.89l2.466 2.467c.18.18.388.27.646.27s.467-.09.66-.27a.92.92 0 0 0 0-1.308L9.26 7.957c.594-.865.89-1.82.89-2.88a4.95 4.95 0 0 0-.4-1.977 5.213 5.213 0 0 0-1.085-1.614A5.217 5.217 0 0 0 7.052.4 4.966 4.966 0 0 0 5.076 0C4.39 0 3.732.13 3.1.4a5.235 5.235 0 0 0-1.615 1.086A5.213 5.213 0 0 0 .4 3.1C.13 3.733 0 4.392 0 5.077 0 5.76.127 6.42.4 7.053a5.23 5.23 0 0 0 1.085 1.614zm3.59-6.82c.892 0 1.654.31 2.287.943.632.633.943 1.395.943 2.286s-.31 1.653-.943 2.286c-.633.632-1.395.943-2.286.943s-1.653-.31-2.286-.943-.94-1.395-.94-2.286.31-1.653.943-2.286 1.396-.943 2.287-.943z" fill="#8596A5"/></svg>