<svg xmlns="http://www.w3.org/2000/svg" xmlns:xlink="http://www.w3.org/1999/xlink" version="1.1" baseProfile="full" width="100%" height="100%" viewBox="0 0 16.00 16.00" enable-background="new 0 0 16.00 16.00" xml:space="preserve">
  <path fill="#000000" fill-opacity="1" fill-rule="evenodd" stroke-width="0.2" stroke-linejoin="round" d="M15.854 13.318l-3.35-3.245c.58-1.042.926-2.2.926-3.242C13.43 3.01 10.42 0 6.715 0A6.72 6.72 0 0 0 0 6.715a6.72 6.72 0 0 0 6.715 6.715c1.158 0 2.316-.347 3.358-.926l3.258 3.35a.482.482 0 0 0 .7 0l1.83-1.838a.49.49 0 0 0 0-.698zM6.714 2.663c2.2 0 4.053 1.852 4.053 4.052 0 2.2-1.852 4.052-4.052 4.052-2.2 0-4.052-1.852-4.052-4.052 0-2.315 1.737-4.052 4.052-4.052z">/>
</svg>
