<svg class="icon-main icon-close" width="12" height="12" viewBox="0 0 12 12" xmlns="http://www.w3.org/2000/svg">
  <g class="icon-meta">
    <title>Close</title>
  </g>
  <g class="icon-container">
    <path d="M11.863 10.07l-4.09-4.104 4.1-4.052a.433.433 0 0 0 0-.61L10.707.13a.43.43 0 0 0-.305-.124.442.442 0 0 0-.305.125l-4.08 4.04L1.93.14A.43.43 0 0 0 1.627.01a.442.442 0 0 0-.305.124L.16 1.306a.433.433 0 0 0 0 .61l4.1 4.053-4.087 4.1a.432.432 0 0 0-.127.3.42.42 0 0 0 .128.306L1.34 11.85a.43.43 0 0 0 .61 0l4.07-4.09 4.077 4.087a.43.43 0 0 0 .61 0l1.166-1.173c.08-.08.128-.19.128-.305a.446.446 0 0 0-.13-.305z" fill="#000000"/>
  </g>
</svg>
