<svg class="icon-main icon-more-vertical" width="6" height="24" viewBox="0 0 6 24" xmlns="http://www.w3.org/2000/svg">
    <g class="icon-meta">
        <title>
            More Vertical
        </title>
    </g>
    <g class="icon-container">
        <path d="M0 20.887c0-1.718 1.337-3.112 3-3.112 1.656 0 3 1.388 3 3.113C6 22.605 4.656 24 3 24c-1.663 0-3-1.387-3-3.113zM0 12c0-1.72 1.337-3.113 3-3.113 1.656 0 3 1.394 3 3.113 0 1.72-1.344 3.106-3 3.106-1.663 0-3-1.387-3-3.106zm0-8.894C0 1.388 1.337 0 3 0c1.656 0 3 1.387 3 3.106C6 4.83 4.656 6.22 3 6.22c-1.663 0-3-1.39-3-3.114z" fill-rule="evenodd"/>
    </g>
</svg>
