<svg width="28" height="28" viewBox="0 0 28 28" xmlns="http://www.w3.org/2000/svg"><title>icon-ticket</title><path d="M25.043 7.954l1.76 1.76c.852.852.852 2.23 0 3.08L12.51 27.092c-.85.85-2.23.85-3.08 0l-1.763-1.76a3.41 3.41 0 0 0-4.69-4.692l-1.78-1.78a2.175 2.175 0 0 1 0-3.08L15.49 1.48a2.18 2.18 0 0 1 3.08 0l1.782 1.78a3.41 3.41 0 0 0 4.69 4.692zm-9.888-2.11a1.12 1.12 0 0 1 1.58 0l5.706 5.708a1.116 1.116 0 0 1 0 1.58l-9.61 9.615a1.118 1.118 0 0 1-1.58 0L5.54 17.04a1.116 1.116 0 0 1 0-1.58l9.615-9.615zm.652 1.166l5.47 5.47-9.103 9.102-5.47-5.47 9.103-9.102z" fill="#57626C" fill-rule="evenodd"/></svg>