<svg class="icon-main icon-code-download" width="18" height="11" viewBox="0 0 18 11" xmlns="http://www.w3.org/2000/svg">
    <g class="icon-meta">
        <title>
            Code Download
        </title>
    </g>
    <g class="icon-container" fill="none" fill-rule="evenodd">
        <path d="M5.463 10.93a.962.962 0 0 1-.68-.28l-4.5-4.5a.966.966 0 0 1 0-1.366L4.78.284a.964.964 0 1 1 1.366 1.364l-3.82 3.818 3.82 3.817a.966.966 0 0 1 0 1.366.968.968 0 0 1-.683.28zm7.074 0a.962.962 0 0 0 .68-.28l4.5-4.503a.965.965 0 0 0 0-1.365L13.22.282a.966.966 0 0 0-1.366 1.366l3.82 3.818-3.82 3.817a.966.966 0 0 0 0 1.366c.188.185.437.28.683.28zm-.523-4.335c.26-.26.26-.68 0-.94a.688.688 0 0 0-.96 0L9.644 7.05V2.273c0-.366-.275-.663-.643-.663s-.64.297-.64.663V7.05L6.95 5.655a.676.676 0 0 0-.95 0 .666.666 0 0 0 0 .94l2.536 2.532v.003c.03.03.06.055.096.078l.012.007.04.025.016.01.05.023a.275.275 0 0 0 .05.018l.016.007c.005.003.01.003.018.005a.66.66 0 0 0 .345 0c.002 0 .01 0 .012-.004.006 0 .01-.003.015-.004l.05-.017.05-.024c.006 0 .01-.005.015-.01.016-.004.028-.013.04-.02l.015-.01.045-.033c.015-.015.033-.03.045-.045h.005l2.54-2.534z" fill="#000"/>
    </g>
</svg>
