<svg class="icon-main icon-circle icon-circle-caret" width="16" height="16" viewBox="0 0 16 16" xmlns="http://www.w3.org/2000/svg">
    <g class="icon-meta">
        <title>
            Circle Caret
        </title>
    </g>
    <g class="icon-container">
        <path d="M8 0C3.6 0 0 3.6 0 8s3.6 8 8 8 8-3.6 8-8-3.6-8-8-8zm3.7 7.8l-2.9 2.9c-.2.2-.5.3-.8.3-.3 0-.6-.1-.8-.3L4.3 7.8c-.2-.2-.3-.5-.3-.7 0-.3.1-.5.3-.8.2-.2.5-.3.8-.3.3 0 .6.1.8.3L8 8.4l2.1-2.1c.3-.2.5-.3.8-.3.3 0 .6.1.8.3.2.2.3.5.3.8 0 .3-.1.5-.3.7z"/>
    </g>
</svg>
