<svg xmlns="http://www.w3.org/2000/svg" xmlns:xlink="http://www.w3.org/1999/xlink" version="1.1" baseProfile="full" width="100%" height="100%" viewBox="0 0 12.00 8.00" enable-background="new 0 0 12.00 8.00" xml:space="preserve">
  <path fill="#000000" fill-opacity="1" stroke-width="0.2" stroke-linejoin="round" d="M7.7 1.8L4.8 4.7c-.2.2-.5.3-.8.3-.3 0-.6-.1-.8-.3L.3 1.8c-.2-.2-.3-.5-.3-.7C0 .8.1.6.3.3.5.1.8 0 1.1 0c.3 0 .6.1.8.3L4 2.4 6.1.3c.3-.2.5-.3.8-.3.3 0 .6.1.8.3.2.2.3.5.3.8 0 .3-.1.5-.3.7z"/>
</svg>
