<svg xmlns="http://www.w3.org/2000/svg" width="30" height="30" viewBox="0 0 30 30"><path fill="#CDCAB6" d="M15 1.875c3.506 0 6.802 1.365 9.28 3.844 2.48 2.476 3.845 5.772 3.845 9.28s-1.365 6.8-3.845 9.28c-2.48 2.48-5.774 3.843-9.28 3.843S8.198 26.76 5.72 24.28C3.24 21.803 1.874 18.507 1.874 15S3.24 8.198 5.72 5.72 11.493 1.874 15 1.874M15 0C6.716 0 0 6.716 0 15s6.716 15 15 15 15-6.716 15-15S23.284 0 15 0zm0 5.625a2.813 2.813 0 1 0 .002 5.624A2.813 2.813 0 0 0 15 5.623zm0 7.5h-1.875a1.874 1.874 0 0 0 0 3.75V22.5a1.875 1.875 0 0 0 3.75 0V15c0-1.036-.84-1.875-1.875-1.875z"/></svg>