<svg width="16" height="8" viewBox="0 0 16 8" xmlns="http://www.w3.org/2000/svg"><title>icon-link</title><path d="M12.688 0h-2.02s1.082.708 1.316 2h.704C13.42 2 14 2.58 14 3.313v1.333C14 5.38 13.423 6 12.69 6H8.02c-.732 0-1.353-.62-1.353-1.354V3.333h-2v1.313c0 .48.104.938.288 1.354a3.37 3.37 0 0 0 3.067 2h4.667C14.53 8 16 6.487 16 4.646V3.313A3.297 3.297 0 0 0 12.69 0zm-1.62 2A3.3 3.3 0 0 0 8.02 0H3.355C1.512 0 0 1.47 0 3.313v1.333A3.367 3.367 0 0 0 3.354 8h1.98s-1.076-.708-1.34-2h-.64C2.62 6 2 5.38 2 4.646V3.313C2 2.58 2.62 2 3.35 2h4.67c.733 0 1.313.58 1.313 1.313v1.354h2V3.313A3.34 3.34 0 0 0 11.066 2z" fill="#8596A5"/></svg>