<svg xmlns="http://www.w3.org/2000/svg" xmlns:xlink="http://www.w3.org/1999/xlink" version="1.1" baseProfile="full" width="100%" height="100%" viewBox="0 0 16.00 16.00" enable-background="new 0 0 16.00 16.00" xml:space="preserve">
  <path fill="#000000" fill-opacity="1" stroke-width="0.2" stroke-linejoin="round" d="M8 0C3.6 0 0 3.6 0 8s3.6 8 8 8 8-3.6 8-8-3.6-8-8-8zm3.7 7.8l-2.9 2.9c-.2.2-.5.3-.8.3-.3 0-.6-.1-.8-.3L4.3 7.8c-.2-.2-.3-.5-.3-.7 0-.3.1-.5.3-.8.2-.2.5-.3.8-.3.3 0 .6.1.8.3L8 8.4l2.1-2.1c.3-.2.5-.3.8-.3.3 0 .6.1.8.3.2.2.3.5.3.8 0 .3-.1.5-.3.7z"/>
</svg>
