<svg xmlns="http://www.w3.org/2000/svg" xmlns:xlink="http://www.w3.org/1999/xlink" version="1.1" baseProfile="full" width="100%" height="100%" viewBox="0 0 12.00 15.00" enable-background="new 0 0 12.00 15.00" xml:space="preserve">
  <path fill="#000000" fill-opacity="1" fill-rule="evenodd" stroke-width="0.2" stroke-linejoin="round" d="M12 14c0 .5-.5 1-1 1H1c-.5 0-1-.5-1-1V7c0-.5.5-1 1-1h1V4c0-2.2 1.8-4 4-4s4 1.8 4 4v2h1c.5 0 1 .5 1 1v7zM0 8h12v1H0V8zm8-2V4.095C8 2.933 7.2 2 6.005 2 4.8 2 4.01 2.933 4.01 4.095V6H8z">/>
</svg>
