<svg width="14" height="12" viewBox="0 0 14 12" xmlns="http://www.w3.org/2000/svg"><title>icon-refresh</title><path d="M11.007 8.98L14 5.49h-2.017A5.997 5.997 0 0 0 7.103.1l-.07-.012L6.99.082a5.878 5.878 0 0 0-.973-.08h-.012a5.993 5.993 0 0 0-5.82 4.632v.003L.16 4.74l-.01.044-.01.065-.017.08-.006.03-.02.112v.006a5.37 5.37 0 0 0-.06.596V5.7l-.005.13-.003.156v.156l.005.128v.03c.01.204.032.4.06.597V6.9l.02.113.005.034.017.08.012.066.01.044.02.1v.003a6.004 6.004 0 0 0 5.833 4.633 5.867 5.867 0 0 0 3.645-1.27l.233-.183-1.34-1.44-.193.142c-.69.508-1.48.755-2.34.755-2.2 0-3.99-1.777-3.99-3.99a3.987 3.987 0 0 1 3.99-3.992c2.07 0 3.83 1.453 4.04 3.492H7.763l3.243 3.492z" fill="#8596A5"/></svg>