<svg class="icon-main icon-bell-off" width="16" height="17" viewBox="0 0 16 17" xmlns="http://www.w3.org/2000/svg">
    <g class="icon-meta">
        <title>
            Bell Off
        </title>
    </g>
    <g class="icon-container" fill="none" fill-rule="evenodd">
        <g fill="#000">
            <g>
                <path d="M3.67 3.055L13.616 13h-.002l1.693 1.693-1.414 1.414L10.786 13H0c1.583-.996 2.763-1.504 2.763-6.246 0-.604.048-1.148.137-1.64l-2.7-2.7L1.614 1 3.67 3.055zm1.43-1.4A5.22 5.22 0 0 1 7.013.99C7.008.968 7.008.946 7.008.92 7.008.41 7.446 0 8 0s1.008.408 1.008.92c0 .026-.004.047-.004.068 2.046.308 4.234 1.69 4.234 5.758 0 1.5.118 2.575.33 3.378L5.1 1.656z"/>
                <path d="M8 16c1.555 0 2.832-.926 3-2H5c.162 1.074 1.445 2 3 2z"/>
            </g>
        </g>
    </g>
</svg>
