<svg xmlns="http://www.w3.org/2000/svg" xmlns:xlink="http://www.w3.org/1999/xlink" version="1.1" baseProfile="full" width="100%" height="100%" viewBox="0 0 14.00 16.00" enable-background="new 0 0 14.00 16.00" xml:space="preserve">
  <path fill="#000000" fill-opacity="1" fill-rule="evenodd" stroke-width="0.2" stroke-linejoin="round" d="M9.5 2c0-1-1-2-2.5-2S4.5 1 4.5 2H1c-.5 0-1 .5-1 1v12c0 .5.5 1 1 1h12c.5 0 1-.5 1-1V3c0-.5-.5-1-1-1H9.5zM7 1.556c.467 0 .778.31.778.777s-.31.778-.778.778c-.467 0-.778-.31-.778-.777 0-.466.31-.777.778-.777zM3 11h4v1H3v-1zm0-3h7v1H3V8zm-1 6V4h2v2h6V4h2v10H2z"/>
</svg>
