<svg class="icon-main icon-link" width="16" height="16" viewBox="0 0 16 16" xmlns="http://www.w3.org/2000/svg">
  <g class="icon-meta">
    <title>Link</title>
  </g>
  <g class="icon-container">
    <path d="M7.9 5.2zm4.6 1.7l-1.4-1.3s.3 1.2-.5 2.1l.5.4c.5.5.5 1.2 0 1.7l-.9.9c-.5.5-1.3.5-1.8 0l-3.2-3c-.5-.5-.5-1.3 0-1.8l.8-.7-1.3-1.3-.9.9c-.4.3-.6.6-.8 1-.4 1.1-.2 2.4.8 3.3l3.2 3c1.3 1.2 3.3 1.2 4.6 0l.9-.9c.7-1 .7-3.1 0-4.3zm-2.5.3c.5-1.1.2-2.4-.7-3.3L6.1.9a3.39 3.39 0 0 0-4.6 0l-1 .8C-.2 2.8-.2 4.9.5 6l1.4 1.3s-.3-1.2.5-2.2l-.5-.3c-.5-.5-.5-1.3 0-1.8l.9-.9c.5-.5 1.3-.4 1.8 0l3.2 3c.5.5.5 1.2 0 1.7l-.8 1 1.4 1.3.9-.9c.3-.3.5-.6.7-1z"/>
  </g>
</svg>
