<svg xmlns="http://www.w3.org/2000/svg" xmlns:xlink="http://www.w3.org/1999/xlink" version="1.1" baseProfile="full" width="100%" height="100%" viewBox="0 0 16.00 16.00" enable-background="new 0 0 16.00 16.00" xml:space="preserve">
  <path fill="#000000" fill-opacity="1" fill-rule="evenodd" stroke-width="0.2" stroke-linejoin="round" d="M14.954 14.3c.578.94.15 1.7-.948 1.7H1.994c-1.1 0-1.53-.755-.948-1.7L6 6.25V2a.992.992 0 0 1-1-1 1 1 0 0 1 .99-1h4.02c.546 0 .99.444.99 1a1 1 0 0 1-.99 1L10 6.25l4.954 8.05zM4.45 11L7 6.75V2h2v4.75L11.6 11H4.45z"/>
</svg>
