<svg width="24" height="6" xmlns="http://www.w3.org/2000/svg">
    <symbol id="icon-more-horizontal" viewBox="0 0 24 6">
        <g class="icon-meta">
            <title>
                More Horizontal
            </title>
        </g>
        <g class="icon-container">
            <path d="M20.887 6c-1.718 0-3.112-1.338-3.112-3 0-1.656 1.388-3 3.113-3C22.605 0 24 1.344 24 3c0 1.662-1.387 3-3.113 3zM12 6c-1.72 0-3.113-1.338-3.113-3 0-1.656 1.394-3 3.113-3 1.72 0 3.106 1.344 3.106 3 0 1.662-1.387 3-3.106 3zM3.106 6C1.388 6 0 4.662 0 3c0-1.656 1.387-3 3.106-3C4.83 0 6.22 1.344 6.22 3c0 1.662-1.39 3-3.114 3z" fill-rule="evenodd"/>
        </g>
    </symbol>
</svg>
