<svg xmlns="http://www.w3.org/2000/svg" xmlns:xlink="http://www.w3.org/1999/xlink" version="1.1" baseProfile="full" width="100%" height="100%" viewBox="0 0 16.00 16.00" enable-background="new 0 0 16.00 16.00" xml:space="preserve">
  <path fill="#000000" fill-opacity="1" stroke-width="0.2" stroke-linejoin="round" d="M15.908 2.658L13.796.992a.376.376 0 0 0-.24-.092.363.363 0 0 0-.24.096L5.63 10.868s-3.02-2.905-3.104-2.99c-.085-.084-.197-.226-.366-.226-.17 0-.246.12-.335.207C1.76 7.93.683 9.06.152 9.62c-.03.035-.05.054-.077.08a.383.383 0 0 0-.077.22c0 .085.03.154.077.22l.108.1s5.36 5.147 5.447 5.235c.09.09.196.2.354.2.154 0 .28-.165.354-.238l9.583-12.31a.388.388 0 0 0 .08-.224.394.394 0 0 0-.09-.246"/>
</svg>
