<svg class="icon-main icon-link" width="16" height="16" viewBox="0 0 16 16" xmlns="http://www.w3.org/2000/svg">
    <g class="icon-meta">
        <title>
            Link
        </title>
    </g>
    <g class="icon-container">
        <path d="M14.757 7.25l-3.004 3.002a4.243 4.243 0 0 1-6.005 0 4.288 4.288 0 0 1-.645-.857L6.5 8c.065-.067.147-.105.225-.15.097.33.265.64.524.9a2.12 2.12 0 0 0 3 0l3-3.002a2.122 2.122 0 1 0-3-3.003l-1.07 1.07c-.866-.34-1.8-.43-2.71-.296l2.28-2.28a4.245 4.245 0 0 1 6.007 0 4.248 4.248 0 0 1 0 6.005zm-7.94 4.937l-1.07 1.068a2.125 2.125 0 0 1-3.002 0 2.126 2.126 0 0 1 0-3.003L5.748 7.25a2.122 2.122 0 0 1 3.003 0c.26.258.43.57.53.9.08-.046.16-.084.225-.15L10.9 6.605a4.25 4.25 0 0 0-.646-.857 4.248 4.248 0 0 0-6.006 0L1.244 8.75a4.247 4.247 0 1 0 6.005 6.007L9.52 12.48a5.326 5.326 0 0 1-2.71-.29z" fill="#010101" fill-rule="evenodd"/>
    </g>
</svg>
