<svg width="12" height="12" xmlns="http://www.w3.org/2000/svg">
    <symbol id="icon-view-card" viewBox="0 0 12 12">
        <g class="icon-meta">
            <title>
                Card View
            </title>
        </g>
        <g class="icon-container">
            <path d="M4.87 12H.13c-.07 0-.13-.06-.13-.13V7.13C0 7.06.06 7 .13 7h4.74c.07 0 .13.06.13.13v4.74c0 .07-.06.13-.13.13zm7 0H7.13c-.07 0-.13-.06-.13-.13V7.13c0-.07.06-.13.13-.13h4.74c.07 0 .13.06.13.13v4.74c0 .07-.06.13-.13.13zm0-7H7.13C7.06 5 7 4.94 7 4.87V.13c0-.07.06-.13.13-.13h4.74c.07 0 .13.06.13.13v4.74c0 .07-.06.13-.13.13zm-7 0H.13C.06 5 0 4.94 0 4.87V.13C0 .06.06 0 .13 0h4.74c.07 0 .13.06.13.13v4.74c0 .07-.06.13-.13.13z"/>
        </g>
    </symbol>
</svg>
