<svg xmlns="http://www.w3.org/2000/svg" xmlns:xlink="http://www.w3.org/1999/xlink" version="1.1" baseProfile="full" width="100%" height="100%" viewBox="0 0 16.00 16.00" enable-background="new 0 0 16.00 16.00" xml:space="preserve">
  <path fill="#000000" fill-opacity="1" stroke-width="0.2" stroke-linejoin="round" d="M14 1v1.468C14 3.5 13 4 12 4s-2-.5-2-1.532V1H6v1.468c0 .5-.5 1.417-2 1.532-1.5-.115-2-1.032-2-1.532V1H.286A.288.288 0 0 0 0 1.288v14.424c0 .158.13.288.286.288h15.428c.158 0 .286-.13.286-.288V1.288A.286.286 0 0 0 15.714 1H14zm0 13H2V5h12v9zM11 1c0-.553.444-1 1-1 .552 0 1 .443 1 1v1c0 .553-.444 1-1 1-.552 0-1-.443-1-1V1zM3 1c0-.553.444-1 1-1 .552 0 1 .443 1 1v1c0 .553-.444 1-1 1-.552 0-1-.443-1-1V1z"/>
</svg>
