<svg width="12" height="12" viewBox="0 0 12 12" xmlns="http://www.w3.org/2000/svg"><title>Fill 205</title><path d="M1.273 12h9.454c.588 0 .972-.17 1.163-.49.192-.338.133-.73-.177-1.193l-4.138-6.21V.995h.53A.51.51 0 0 0 8.46.84a.467.467 0 0 0 .16-.35.464.464 0 0 0-.16-.335A.514.514 0 0 0 8.09 0H3.91a.514.514 0 0 0-.37.154.46.46 0 0 0-.16.337c0 .14.058.255.16.35.104.1.222.157.37.157h.515V4.11L.287 10.32c-.31.462-.37.854-.177 1.19.192.32.575.49 1.163.49zm4.035-7.36l.16-.24V.996H6.53V4.4l.16.24 2.24 3.35H3.07l2.237-3.35z" fill="#8596A5"/></svg>