<svg width="16" height="16" viewBox="0 0 16 16" xmlns="http://www.w3.org/2000/svg">
    <g class="icon-meta">
        <title>
            Search
        </title>
    </g>
    <g class="icon-container">
        <path d="M15.854 13.318l-3.35-3.245c.58-1.042.926-2.2.926-3.242C13.43 3.01 10.42 0 6.715 0A6.72 6.72 0 0 0 0 6.715a6.72 6.72 0 0 0 6.715 6.715c1.158 0 2.316-.347 3.358-.926l3.258 3.35a.482.482 0 0 0 .7 0l1.83-1.838a.49.49 0 0 0-.004-.698zM6.714 2.663c2.2 0 4.053 1.852 4.053 4.052 0 2.2-1.852 4.052-4.052 4.052-2.2 0-4.052-1.852-4.052-4.052 0-2.315 1.737-4.052 4.052-4.052z" fill-rule="evenodd"/>
    </g>
</svg>
