<svg class="icon-main icon-disable" width="16" height="16" viewBox="0 0 16 16" xmlns="http://www.w3.org/2000/svg">
  <g class="icon-meta">
    <title>Disable</title>
  </g>
  <g class="icon-container">
    <path d="M8 16c4.418 0 8-3.582 8-8s-3.582-8-8-8-8 3.582-8 8 3.582 8 8 8zm4.89-11.477C13.59 5.503 14 6.703 14 8c0 3.314-2.686 6-6 6-1.296 0-2.496-.41-3.477-1.11l8.368-8.367zM11.478 3.11C10.497 2.41 9.297 2 8 2 4.686 2 2 4.686 2 8c0 1.296.41 2.496 1.11 3.477l8.367-8.368z" fill="#000" fill-rule="evenodd"/>
  </g>
</svg>
