<svg class="icon-main icon-attachment" width="14" height="20" viewBox="0 0 14 20" xmlns="http://www.w3.org/2000/svg">
    <g class="icon-meta">
        <title>
            Attachment
        </title>
    </g>
    <g class="icon-container">
      <path d="M10 10.894V13c0 1.657-1.343 3-3 3s-3-1.343-3-3V5.5c0-.553.444-1 1-1 .553 0 1 .445 1 1V13c0 .552.447 1 1 1 .553 0 1-.448 1-1V5c0-1.657-1.343-3-3-3S2 3.343 2 5v8c0 2.76 2.239 5 5 5s5-2.24 5-5V8.003C12 7.45 12.444 7 13 7c.553 0 1 .448 1 1.003V13c0 3.866-3.134 7-7 7s-7-3.134-7-7V5C0 2.24 2.24 0 5 0s5 2.24 5 5v5.894z" fill="#000" fill-rule="evenodd"/>
    </g>
</svg>
