<svg class="icon-main icon-check" width="16" height="16" viewBox="0 0 16 16" xmlns="http://www.w3.org/2000/svg">
  <g class="icon-meta">
    <title>Check</title>
  </g>
  <g class="icon-container">
    <path d="M15.908 2.658L13.796.992C13.73.938 13.65.9 13.556.9c-.09 0-.176.038-.24.096L5.63 10.868s-3.02-2.905-3.104-2.99c-.085-.084-.197-.226-.366-.226-.17 0-.246.12-.335.207-.065.07-1.142 1.2-1.673 1.76-.03.036-.05.055-.077.082-.046.065-.077.14-.077.22 0 .084.03.153.077.22l.108.1s5.36 5.146 5.447 5.234c.09.09.196.2.354.2.154 0 .28-.165.354-.238l9.583-12.31c.046-.066.077-.14.077-.224 0-.096-.038-.177-.092-.246" fill="#000000"/>
  </g>
</svg>
